<svg xmlns="http://www.w3.org/2000/svg" xmlns:xlink="http://www.w3.org/1999/xlink" width="500" height="500" preserveAspectRatio="xMidYMid meet" version="1.0" viewBox="0 0 375 375" zoomAndPan="magnify"><g fill="#828A8F" fill-opacity="1"><g><g><path d="M 6.25 -10.203125 L 5.421875 -9.9375 L 6.25 -9.65625 L 15.65625 -6.03125 L 15.65625 -3.015625 L 2.609375 -8.84375 L 2.609375 -11.09375 L 15.65625 -16.90625 L 15.65625 -13.890625 Z M 6.25 -10.203125" transform="translate(140.244136, 199.499987)"/></g></g></g><g fill="#000" fill-opacity="1"><g><g><path d="M 13.1875 -22.390625 L 16.09375 -22.390625 L 16.09375 -6.8125 C 16.070312 -5.78125 15.875 -4.828125 15.5 -3.953125 C 15.125 -3.078125 14.613281 -2.320312 13.96875 -1.6875 C 13.320312 -1.0625 12.554688 -0.570312 11.671875 -0.21875 C 10.796875 0.132812 9.84375 0.3125 8.8125 0.3125 C 7.769531 0.3125 6.816406 0.15625 5.953125 -0.15625 C 5.097656 -0.476562 4.351562 -0.9375 3.71875 -1.53125 C 3.09375 -2.125 2.585938 -2.835938 2.203125 -3.671875 C 1.828125 -4.503906 1.59375 -5.4375 1.5 -6.46875 L 4.40625 -6.46875 C 4.425781 -5.84375 4.546875 -5.265625 4.765625 -4.734375 C 4.992188 -4.203125 5.296875 -3.738281 5.671875 -3.34375 C 6.054688 -2.945312 6.507812 -2.640625 7.03125 -2.421875 C 7.5625 -2.210938 8.15625 -2.109375 8.8125 -2.109375 C 9.488281 -2.109375 10.09375 -2.234375 10.625 -2.484375 C 11.15625 -2.734375 11.609375 -3.070312 11.984375 -3.5 C 12.359375 -3.9375 12.644531 -4.4375 12.84375 -5 C 13.050781 -5.570312 13.164062 -6.175781 13.1875 -6.8125 Z M 13.1875 -22.390625" transform="translate(159.146478, 199.499987)"/></g></g><g><g><path d="M 2.390625 0 L 2.390625 -22.390625 L 7.5625 -22.390625 C 9.125 -22.367188 10.515625 -22.101562 11.734375 -21.59375 C 12.960938 -21.09375 14 -20.390625 14.84375 -19.484375 C 15.695312 -18.578125 16.34375 -17.488281 16.78125 -16.21875 C 17.226562 -14.945312 17.457031 -13.546875 17.46875 -12.015625 L 17.46875 -10.359375 C 17.457031 -8.828125 17.226562 -7.425781 16.78125 -6.15625 C 16.34375 -4.894531 15.695312 -3.804688 14.84375 -2.890625 C 14 -1.984375 12.960938 -1.273438 11.734375 -0.765625 C 10.515625 -0.265625 9.125 -0.0078125 7.5625 0 Z M 5.28125 -20.0625 L 5.28125 -2.328125 L 7.5625 -2.328125 C 8.769531 -2.335938 9.816406 -2.546875 10.703125 -2.953125 C 11.585938 -3.367188 12.316406 -3.9375 12.890625 -4.65625 C 13.472656 -5.375 13.90625 -6.21875 14.1875 -7.1875 C 14.46875 -8.164062 14.613281 -9.222656 14.625 -10.359375 L 14.625 -12.046875 C 14.613281 -13.179688 14.460938 -14.234375 14.171875 -15.203125 C 13.890625 -16.171875 13.460938 -17.007812 12.890625 -17.71875 C 12.316406 -18.4375 11.585938 -19 10.703125 -19.40625 C 9.816406 -19.820312 8.769531 -20.039062 7.5625 -20.0625 Z M 5.28125 -20.0625" transform="translate(178.049554, 199.499987)"/></g></g></g><g fill="#9E1B32" fill-opacity="1"><g><g><path d="M 7.625 -1.84375 C 7.625 -2.15625 7.671875 -2.441406 7.765625 -2.703125 C 7.867188 -2.972656 8.007812 -3.207031 8.1875 -3.40625 C 8.375 -3.601562 8.609375 -3.757812 8.890625 -3.875 C 9.171875 -3.988281 9.492188 -4.046875 9.859375 -4.046875 C 10.222656 -4.046875 10.546875 -3.988281 10.828125 -3.875 C 11.117188 -3.757812 11.359375 -3.601562 11.546875 -3.40625 C 11.734375 -3.207031 11.875 -2.972656 11.96875 -2.703125 C 12.070312 -2.441406 12.125 -2.15625 12.125 -1.84375 C 12.125 -1.550781 12.070312 -1.269531 11.96875 -1 C 11.875 -0.738281 11.734375 -0.507812 11.546875 -0.3125 C 11.359375 -0.125 11.117188 0.0195312 10.828125 0.125 C 10.546875 0.238281 10.222656 0.296875 9.859375 0.296875 C 9.492188 0.296875 9.171875 0.238281 8.890625 0.125 C 8.609375 0.0195312 8.375 -0.125 8.1875 -0.3125 C 8.007812 -0.507812 7.867188 -0.738281 7.765625 -1 C 7.671875 -1.269531 7.625 -1.550781 7.625 -1.84375 Z M 7.625 -1.84375" transform="translate(196.951164, 199.499987)"/></g></g></g><g fill="#828A8F" fill-opacity="1"><g><g><path d="M 2.734375 -13.984375 L 2.734375 -16.921875 L 16.3125 -11.109375 L 16.3125 -8.859375 L 2.734375 -3.03125 L 2.734375 -5.984375 L 12.6875 -9.734375 L 13.609375 -10 L 12.6875 -10.296875 Z M 2.734375 -13.984375" transform="translate(215.853506, 199.499987)"/></g></g></g></svg>